# MagicaVoxel @ ephtracy

# material
mtllib 1x1x1.mtl

# normals
vn -1 0 0
vn 1 0 0
vn 0 0 1
vn 0 0 -1
vn 0 -1 0
vn 0 1 0

# texcoords
vt 0.306641 0.5

# verts
v -0.5 0 0.5
v -0.5 1 0.5
v -0.5 1 -0.5
v -0.5 0 -0.5
v 0.5 0 0.5
v 0.5 0 -0.5
v 0.5 1 -0.5
v 0.5 1 0.5

# faces

usemtl palette

f 1/1/1 2/1/1 3/1/1 4/1/1

f 5/1/2 6/1/2 7/1/2 8/1/2

f 1/1/3 5/1/3 8/1/3 2/1/3

f 4/1/4 3/1/4 7/1/4 6/1/4

f 1/1/5 4/1/5 6/1/5 5/1/5

f 2/1/6 8/1/6 7/1/6 3/1/6

# numNormals 6
# numTexCoords 1
# numVerts 8
# numFaces 6
